<svg xmlns="http://www.w3.org/2000/svg" viewBox="0 0 200 200" fill="none">
  <!-- ロマンチック背景 -->
  <rect width="200" height="200" fill="#FCE4EC"/>
  <circle cx="100" cy="100" r="80" fill="#F8BBD0" opacity="0.3"/>
  
  <!-- ペアマスク -->
  <g transform="translate(70, 70)">
    <!-- 女性用（ピンク） -->
    <path d="M-25 -8 Q-25 -14, -19 -14 L-1 -14 Q5 -14, 5 -8 L5 8 Q5 14, -1 14 L-19 14 Q-25 14, -25 8 Z" 
          fill="#E91E63" stroke="#C2185B" stroke-width="2"/>
    <rect x="-18" y="-4" width="8" height="12" rx="2" fill="#F48FB1" opacity="0.8"/>
    <rect x="-6" y="-4" width="8" height="12" rx="2" fill="#F48FB1" opacity="0.8"/>
  </g>
  <g transform="translate(130, 70)">
    <!-- 男性用（ブルー） -->
    <path d="M-5 -8 Q-5 -14, 1 -14 L19 -14 Q25 -14, 25 -8 L25 8 Q25 14, 19 14 L1 14 Q-5 14, -5 8 Z" 
          fill="#2196F3" stroke="#1565C0" stroke-width="2"/>
    <rect x="2" y="-4" width="8" height="12" rx="2" fill="#64B5F6" opacity="0.8"/>
    <rect x="14" y="-4" width="8" height="12" rx="2" fill="#64B5F6" opacity="0.8"/>
  </g>
  
  <!-- ペアスノーケル -->
  <g transform="translate(40, 105)">
    <rect x="-3" y="-12" width="6" height="30" rx="3" fill="#E91E63" stroke="#C2185B" stroke-width="1.5"/>
    <circle cx="0" cy="-15" r="5" fill="#F48FB1" stroke="#C2185B" stroke-width="1.5"/>
  </g>
  <g transform="translate(160, 105)">
    <rect x="-3" y="-12" width="6" height="30" rx="3" fill="#2196F3" stroke="#1565C0" stroke-width="1.5"/>
    <circle cx="0" cy="-15" r="5" fill="#64B5F6" stroke="#1565C0" stroke-width="1.5"/>
  </g>
  
  <!-- ペアフィン -->
  <g transform="translate(65, 130)">
    <path d="M-8 -15 L-8 12 Q-8 18, -4 18 L-2 18 Q2 18, 2 12 L2 -15" fill="#E91E63" stroke="#C2185B" stroke-width="1.5"/>
    <path d="M5 -15 L5 12 Q5 18, 9 18 L11 18 Q15 18, 15 12 L15 -15" fill="#E91E63" stroke="#C2185B" stroke-width="1.5"/>
  </g>
  <g transform="translate(135, 130)">
    <path d="M-8 -15 L-8 12 Q-8 18, -4 18 L-2 18 Q2 18, 2 12 L2 -15" fill="#2196F3" stroke="#1565C0" stroke-width="1.5"/>
    <path d="M5 -15 L5 12 Q5 18, 9 18 L11 18 Q15 18, 15 12 L15 -15" fill="#2196F3" stroke="#1565C0" stroke-width="1.5"/>
  </g>
  
  <!-- ハートのつながり -->
  <g transform="translate(100, 45)">
    <path d="M-15 0 C-15 -6, -9 -12, -3 -12 C3 -12, 9 -6, 9 0 C9 -6, 15 -12, 21 -12 C27 -12, 33 -6, 33 0 Q33 18, 9 30 Q-15 18, -15 0 Z" 
          fill="#FF4081" opacity="0.8"/>
    <text x="9" y="5" text-anchor="middle" fill="white" font-family="Arial" font-size="10" font-weight="bold">2</text>
  </g>
  
  <!-- 記念日刻印 -->
  <g transform="translate(100, 160)">
    <rect x="-40" y="-12" width="80" height="24" rx="12" fill="#795548" stroke="#5D4037" stroke-width="2"/>
    <text x="0" y="-2" text-anchor="middle" fill="#FFF" font-family="Arial" font-size="8">Anniversary</text>
    <text x="0" y="7" text-anchor="middle" fill="#FFD700" font-family="Arial" font-size="7">2024.6.1</text>
  </g>
  
  <!-- ペア割引バッジ -->
  <g transform="translate(35, 35)">
    <rect x="-25" y="-10" width="50" height="20" rx="10" fill="#4CAF50"/>
    <text x="0" y="4" text-anchor="middle" fill="white" font-family="Arial" font-size="9" font-weight="bold">ペア割引</text>
  </g>
  
  <!-- 価格 -->
  <text x="165" y="35" text-anchor="end" fill="#C2185B" font-family="Arial" font-size="14" font-weight="bold">¥45,000</text>
</svg>