<svg xmlns="http://www.w3.org/2000/svg" viewBox="0 0 400 300" fill="none">
  <rect width="400" height="300" fill="#E8F4FD"/>
  <circle cx="200" cy="150" r="100" fill="#0066CC" opacity="0.1"/>
  <circle cx="200" cy="150" r="80" fill="#0066CC" opacity="0.15"/>
  <circle cx="200" cy="150" r="60" fill="#0066CC" opacity="0.2"/>
  
  <!-- マスク -->
  <path d="M150 130 Q150 110, 170 110 L230 110 Q250 110, 250 130 L250 150 Q250 170, 230 170 L170 170 Q150 170, 150 150 Z" fill="#1E88E5" stroke="#0066CC" stroke-width="2"/>
  <rect x="170" y="125" width="20" height="30" rx="5" fill="#64B5F6" opacity="0.5"/>
  <rect x="210" y="125" width="20" height="30" rx="5" fill="#64B5F6" opacity="0.5"/>
  
  <!-- スノーケル -->
  <rect x="255" y="120" width="15" height="60" rx="7.5" fill="#42A5F5" stroke="#0066CC" stroke-width="2"/>
  <circle cx="262.5" cy="115" r="10" fill="#1E88E5" stroke="#0066CC" stroke-width="2"/>
  
  <!-- フィン -->
  <path d="M130 190 L130 230 Q130 240, 140 240 L150 240 Q160 240, 160 230 L160 190" fill="#2196F3" stroke="#0066CC" stroke-width="2"/>
  <path d="M240 190 L240 230 Q240 240, 250 240 L260 240 Q270 240, 270 230 L270 190" fill="#2196F3" stroke="#0066CC" stroke-width="2"/>
  
  <!-- 波 -->
  <path d="M0 250 Q50 240, 100 250 T200 250 T300 250 T400 250 L400 300 L0 300 Z" fill="#0066CC" opacity="0.2"/>
  <path d="M0 260 Q50 250, 100 260 T200 260 T300 260 T400 260 L400 300 L0 300 Z" fill="#0066CC" opacity="0.3"/>
  
  <!-- 泡 -->
  <circle cx="180" cy="200" r="5" fill="#FFFFFF" opacity="0.6"/>
  <circle cx="220" cy="210" r="4" fill="#FFFFFF" opacity="0.6"/>
  <circle cx="200" cy="220" r="6" fill="#FFFFFF" opacity="0.6"/>
</svg>